<svg width="228" height="120" viewBox="0 0 228 120" fill="none" xmlns="http://www.w3.org/2000/svg">
<rect width="228" height="119" fill="#0e0e11"/>
<rect width="200" height="105.206" fill="#1E1E1E"/>
<g clip-path="url(#clip0_0_1)">
<path d="M150 47.3684H27.193C26.2241 47.3684 25.4386 48.1539 25.4386 49.1228V92.1053C25.4386 93.0742 26.2241 93.8597 27.193 93.8597H150C150.969 93.8597 151.754 93.0742 151.754 92.1053V49.1228C151.754 48.1539 150.969 47.3684 150 47.3684Z" fill="#30363D"/>
<path d="M187.719 47.3684H163.158C162.189 47.3684 161.404 48.1539 161.404 49.1228V77.193C161.404 78.1619 162.189 78.9474 163.158 78.9474H187.719C188.688 78.9474 189.474 78.1619 189.474 77.193V49.1228C189.474 48.1539 188.688 47.3684 187.719 47.3684Z" fill="#30363D"/>
<path opacity="0.3" d="M151.754 51.7544H25.4386V62.2807H151.754V51.7544Z" fill="#2EA043"/>
<path opacity="0.6" d="M0 0H200V20.1754H0V0Z" fill="#484F58"/>
<path d="M36.8421 7.89474H14.0351C12.5817 7.89474 11.4035 9.07294 11.4035 10.5263C11.4035 11.9797 12.5817 13.1579 14.0351 13.1579H36.8421C38.2955 13.1579 39.4737 11.9797 39.4737 10.5263C39.4737 9.07294 38.2955 7.89474 36.8421 7.89474Z" fill="#8B949E"/>
<path d="M64.9123 31.5789H28.0702C26.6168 31.5789 25.4386 32.7571 25.4386 34.2105C25.4386 35.6639 26.6168 36.8421 28.0702 36.8421H64.9123C66.3657 36.8421 67.5439 35.6639 67.5439 34.2105C67.5439 32.7571 66.3657 31.5789 64.9123 31.5789Z" fill="#6E7681"/>
<path d="M83.3333 54.386H32.4561C31.0028 54.386 29.8246 55.5642 29.8246 57.0175C29.8246 58.4709 31.0028 59.6491 32.4561 59.6491H83.3333C84.7867 59.6491 85.9649 58.4709 85.9649 57.0175C85.9649 55.5642 84.7867 54.386 83.3333 54.386Z" fill="#3FB950"/>
<path d="M188.596 31.5789H185.088C184.603 31.5789 184.211 31.9717 184.211 32.4561V35.9649C184.211 36.4494 184.603 36.8421 185.088 36.8421H188.596C189.081 36.8421 189.474 36.4494 189.474 35.9649V32.4561C189.474 31.9717 189.081 31.5789 188.596 31.5789Z" fill="#DA3633"/>
<path d="M181.579 31.5789H178.07C177.586 31.5789 177.193 31.9717 177.193 32.4561V35.9649C177.193 36.4494 177.586 36.8421 178.07 36.8421H181.579C182.063 36.8421 182.456 36.4494 182.456 35.9649V32.4561C182.456 31.9717 182.063 31.5789 181.579 31.5789Z" fill="#3FB950"/>
<path d="M71.9298 7.89474H49.1228C47.6694 7.89474 46.4912 9.07294 46.4912 10.5263C46.4912 11.9797 47.6694 13.1579 49.1228 13.1579H71.9298C73.3832 13.1579 74.5614 11.9797 74.5614 10.5263C74.5614 9.07294 73.3832 7.89474 71.9298 7.89474Z" fill="#8B949E"/>
<path d="M107.018 7.89474H84.2105C82.7571 7.89474 81.5789 9.07294 81.5789 10.5263C81.5789 11.9797 82.7571 13.1579 84.2105 13.1579H107.018C108.471 13.1579 109.649 11.9797 109.649 10.5263C109.649 9.07294 108.471 7.89474 107.018 7.89474Z" fill="#8B949E"/>
</g>
<g clip-path="url(#clip1_0_1)">
<path d="M48 19H228V119.909H48V19Z" fill="white"/>
<path d="M183 64.4091H72.4737C71.6017 64.4091 70.8947 65.1621 70.8947 66.0909V107.295C70.8947 108.224 71.6017 108.977 72.4737 108.977H183C183.872 108.977 184.579 108.224 184.579 107.295V66.0909C184.579 65.1621 183.872 64.4091 183 64.4091Z" fill="#F6F8FA"/>
<path d="M216.947 64.4091H194.842C193.97 64.4091 193.263 65.1621 193.263 66.0909V93C193.263 93.9288 193.97 94.6818 194.842 94.6818H216.947C217.819 94.6818 218.526 93.9288 218.526 93V66.0909C218.526 65.1621 217.819 64.4091 216.947 64.4091Z" fill="#F6F8FA"/>
<path opacity="0.3" d="M184.579 68.6136H70.8947V78.7045H184.579V68.6136Z" fill="#34D058"/>
<path opacity="0.6" d="M48 19H228V39.1818H48V19Z" fill="#F6F8FA"/>
<path d="M81.1579 26.5682H60.6316C59.3235 26.5682 58.2632 27.6976 58.2632 29.0909C58.2632 30.4842 59.3235 31.6136 60.6316 31.6136H81.1579C82.4659 31.6136 83.5263 30.4842 83.5263 29.0909C83.5263 27.6976 82.4659 26.5682 81.1579 26.5682Z" fill="#D1D5DA"/>
<path d="M106.421 49.2727H73.2632C71.9551 49.2727 70.8947 50.4022 70.8947 51.7955C70.8947 53.1887 71.9551 54.3182 73.2632 54.3182H106.421C107.729 54.3182 108.789 53.1887 108.789 51.7955C108.789 50.4022 107.729 49.2727 106.421 49.2727Z" fill="#D1D5DA"/>
<path d="M123 71.1364H77.2105C75.9025 71.1364 74.8421 72.2658 74.8421 73.6591C74.8421 75.0524 75.9025 76.1818 77.2105 76.1818H123C124.308 76.1818 125.368 75.0524 125.368 73.6591C125.368 72.2658 124.308 71.1364 123 71.1364Z" fill="#34D058"/>
<path d="M217.737 49.2727H214.579C214.143 49.2727 213.789 49.6492 213.789 50.1136V53.4773C213.789 53.9417 214.143 54.3182 214.579 54.3182H217.737C218.173 54.3182 218.526 53.9417 218.526 53.4773V50.1136C218.526 49.6492 218.173 49.2727 217.737 49.2727Z" fill="#D73A49"/>
<path d="M211.421 49.2727H208.263C207.827 49.2727 207.474 49.6492 207.474 50.1136V53.4773C207.474 53.9417 207.827 54.3182 208.263 54.3182H211.421C211.857 54.3182 212.211 53.9417 212.211 53.4773V50.1136C212.211 49.6492 211.857 49.2727 211.421 49.2727Z" fill="#34D058"/>
<path d="M112.737 26.5682H92.2105C90.9025 26.5682 89.8421 27.6976 89.8421 29.0909C89.8421 30.4842 90.9025 31.6136 92.2105 31.6136H112.737C114.045 31.6136 115.105 30.4842 115.105 29.0909C115.105 27.6976 114.045 26.5682 112.737 26.5682Z" fill="#D1D5DA"/>
<path d="M144.316 26.5682H123.789C122.481 26.5682 121.421 27.6976 121.421 29.0909C121.421 30.4842 122.481 31.6136 123.789 31.6136H144.316C145.624 31.6136 146.684 30.4842 146.684 29.0909C146.684 27.6976 145.624 26.5682 144.316 26.5682Z" fill="#D1D5DA"/>
</g>
<defs>
<clipPath id="clip0_0_1">
<rect width="200" height="105.263" fill="white"/>
</clipPath>
<clipPath id="clip1_0_1">
<rect width="180" height="100.909" fill="white" transform="translate(48 19)"/>
</clipPath>
</defs>
</svg>
